#!OML:ASF H:\ManfredObstacles\Project 1\Capture day 2\Session 1\male.ASF
:FULLY-SPECIFIED
:DEGREES
520
root 0.944511 16.0841 -13.7074 -176.269 5.72243 175.101
lowerback -5.10435 0.860725 -6.57679
upperback 1.77449 1.81502 -2.06519
thorax 4.58836 0.78877 1.70548
lowerneck -33.8239 -0.135538 2.2276
upperneck 36.2352 -0.228448 0.108191
head 19.7978 0.726103 -0.219508
rclavicle -4.96962e-017 3.45885e-014
rhumerus -36.8811 -19.6025 -75.5662
rradius 26.7739
rwrist 36.5017
rhand -0.535058 -5.39624
rfingers 7.12502
rthumb 25.0778 -33.7696
lclavicle -4.96962e-017 3.45885e-014
lhumerus -26.281 6.51088 83.5411
lradius 28.9368
lwrist -42.7941
lhand 1.05922 5.89591
lfingers 7.12502
lthumb 26.6045 34.0469
rfemur -19.47 0.29218 16.7353
rtibia 65.319
rfoot -2.94272 -16.8774
rtoes -19.6439
lfemur -16.8027 -3.02133 -27.9288
ltibia 20.0274
lfoot 1.88028 12.0694
ltoes 9.77918
521
root 0.937418 16.0831 -13.7583 -176.315 5.62174 175.149
lowerback -4.90022 0.803854 -6.49338
upperback 1.75402 1.70991 -2.03086
thorax 4.45953 0.741658 1.68111
lowerneck -33.3042 -0.11172 2.23876
upperneck 35.899 -0.191684 0.0972654
head 19.4659 0.729277 -0.222269
rclavicle -4.39811e-015 5.96354e-015
rhumerus -37.0535 -20.0374 -75.2752
rradius 26.6749
rwrist 36.7649
rhand -0.495972 -5.38243
rfingers 7.12502
rthumb 25.1152 -33.7506
lclavicle -4.39811e-015 5.96354e-015
lhumerus -26.0051 6.38246 83.6095
lradius 29.0665
lwrist -43.1895
lhand 1.51161 5.74208
lfingers 7.12502
lthumb 27.0374 33.8267
rfemur -20.0417 0.6418 16.8414
rtibia 65.112
rfoot -3.68725 -17.3741
rtoes -19.8495
lfemur -16.6548 -3.24065 -27.936
ltibia 20.286
lfoot 1.69086 12.3583
ltoes 9.91894
522
root 0.933158 16.0813 -13.806 -176.275 5.5863 175.397
lowerback -4.73592 0.79606 -6.27353
upperback 1.76331 1.65382 -1.88563
thorax 4.37986 0.715344 1.70113
lowerneck -33.3934 0.0438067 2.52987
upperneck 35.9227 0.00677122 -0.211182
head 19.5045 0.795467 -0.373139
rclavicle -8.19987e-016 -8.74653e-015
rhumerus -37.0703 -19.8983 -75.2466
rradius 26.7433
rwrist 35.9663
rhand -0.515916 -5.65301
rfingers 7.12502
rthumb 25.0961 -34.0238
lclavicle -8.19987e-016 -8.74653e-015
lhumerus -25.8094 5.70927 83.9458
lradius 29.3272
lwrist -42.6602
lhand 1.52684 5.86138
lfingers 7.12502
lthumb 27.052 33.9437
rfemur -20.6676 1.11825 17.2114
rtibia 64.7667
rfoot -4.77715 -18.0944
rtoes -19.196
lfemur -16.6426 -3.38969 -27.7032
ltibia 20.5743
lfoot 1.51962 12.6184
ltoes 10.0088
523
root 0.927191 16.0765 -13.8521 -176.293 5.53142 175.453
lowerback -4.57503 0.725262 -6.21644
upperback 1.84485 1.54212 -1.82941
thorax 4.38163 0.658388 1.71612
lowerneck -33.5096 -0.0206933 2.26625
upperneck 35.9544 -0.0103047 -0.0674385
head 19.5522 0.771089 -0.262411
rclavicle 4.96962e-015 -4.1546e-014
rhumerus -36.9165 -20.1961 -75.1468
rradius 26.6787
rwrist 36.0305
rhand -0.528688 -5.44371
rfingers 7.12502
rthumb 25.0839 -33.8162
lclavicle 4.96962e-015 -4.1546e-014
lhumerus -25.299 5.52652 84.1268
lradius 29.1853
lwrist -42.2107
lhand 1.31233 5.87918
lfingers 7.12502
lthumb 26.8468 33.9932
rfemur -21.2408 1.67763 17.3206
rtibia 64.3229
rfoot -5.70308 -18.7499
rtoes -19.9429
lfemur -16.6077 -3.59899 -27.6975
ltibia 20.9036
lfoot 1.37043 12.9437
ltoes 10.0179
524
root 0.921839 16.078 -13.9052 -176.284 5.43328 175.492
lowerback -4.53003 0.643544 -6.17754
upperback 1.9101 1.4245 -1.76136
thorax 4.43193 0.59633 1.7553
lowerneck -33.7177 -0.0923786 2.02897
upperneck 36.1775 -0.0708442 0.173573
head 19.7388 0.762109 -0.114109
rclavicle -1.27719e-014 3.02153e-014
rhumerus -36.8971 -20.2862 -75.0596
rradius 26.7436
rwrist 36.0188
rhand -0.328027 -5.58424
rfingers 7.12502
rthumb 25.2761 -33.9298
lclavicle -1.27719e-014 3.02153e-014
lhumerus -25.0068 5.62559 84.1202
lradius 29.4192
lwrist -43.7162
lhand 1.95651 5.64839
lfingers 7.12502
lthumb 27.463 33.6662
rfemur -21.717 2.10296 17.3789
rtibia 63.7568
rfoot -6.82822 -19.2986
rtoes -19.4436
lfemur -16.5525 -3.87643 -27.7
ltibia 21.2375
lfoot 1.14268 13.2945
ltoes 10.0494
525
root 0.918934 16.0719 -13.9506 -176.28 5.35817 175.528
lowerback -4.28931 0.582508 -6.21219
upperback 1.83533 1.31211 -1.66539
thorax 4.22225 0.543231 1.86054
lowerneck -33.4112 0.150018 2.55151
upperneck 35.7977 0.203972 -0.381501
head 19.4382 0.832741 -0.414127
rclavicle -1.33683e-014 1.82882e-014
rhumerus -37.1312 -20.4588 -74.8066
rradius 26.7839
rwrist 35.981
rhand -0.183281 -5.44833
rfingers 7.12502
rthumb 25.4148 -33.7742
lclavicle -1.33683e-014 1.82882e-014
lhumerus -24.9568 5.26591 84.3441
lradius 29.4334
lwrist -43.5457
lhand 1.70202 5.58823
lfingers 7.12502
lthumb 27.2196 33.6444
rfemur -22.2182 2.51781 17.4498
rtibia 63.1258
rfoot -7.3949 -19.8832
rtoes -18.5784
lfemur -16.5531 -4.09074 -27.6953
ltibia 21.6059
lfoot 0.963736 13.6174
ltoes 10.1533
526
root 0.91445 16.0692 -14.0004 -176.26 5.32726 175.56
lowerback -4.22589 0.544361 -6.13464
upperback 1.89897 1.25347 -1.64749
thorax 4.25806 0.513696 1.83083
lowerneck -33.5132 0.173834 2.61515
upperneck 35.8949 0.203335 -0.370929
head 19.5217 0.847274 -0.418703
rclavicle -7.52897e-015 -9.93923e-016
rhumerus -37.0074 -20.2282 -75.0018
rradius 26.7399
rwrist 35.4036
rhand -0.262779 -5.50298
rfingers 7.12502
rthumb 25.3387 -33.8397
lclavicle -7.52897e-015 -9.93923e-016
lhumerus -24.6341 4.78685 84.538
lradius 29.3741
lwrist -42.8425
lhand 1.28159 5.73004
lfingers 7.12502
lthumb 26.8173 33.8486
rfemur -22.627 2.9618 17.4886
rtibia 62.3769
rfoot -8.12094 -20.2562
rtoes -18.818
lfemur -16.5213 -4.33875 -27.6999
ltibia 21.9318
lfoot 0.782511 13.9904
ltoes 10.1583
527
root 0.913195 16.0579 -14.0472 -176.247 5.24482 175.649
lowerback -4.15345 0.506753 -6.06776
upperback 1.90281 1.18586 -1.5688
thorax 4.22509 0.479762 1.86884
lowerneck -33.3086 0.0400779 2.27588
upperneck 35.7879 0.0890915 -0.114606
head 19.4047 0.793763 -0.265253
rclavicle -2.30093e-014 -1.68967e-014
rhumerus -37.1134 -20.1825 -74.9581
rradius 26.9637
rwrist 35.1675
rhand -0.014788 -5.61948
rfingers 7.12502
rthumb 25.5762 -33.9223
lclavicle -2.30093e-014 -1.68967e-014
lhumerus -24.5239 4.67546 84.6123
lradius 29.5842
lwrist -43.5138
lhand 1.95361 5.57585
lfingers 7.12502
lthumb 27.4602 33.5941
rfemur -23.0166 3.51526 17.5935
rtibia 61.556
rfoot -8.97563 -20.6414
rtoes -17.8493
lfemur -16.5228 -4.48336 -27.6394
ltibia 22.2892
lfoot 0.586062 14.2346
ltoes 10.1451
528
root 0.911137 16.0537 -14.0981 -176.195 5.26036 175.589
lowerback -4.09097 0.427065 -6.19316
upperback 1.90644 1.07848 -1.51126
thorax 4.199 0.422286 1.98952
lowerneck -33.6856 0.140149 2.3461
upperneck 36.0254 0.240176 -0.207024
head 19.6433 0.850995 -0.281175
rclavicle 5.19325e-015 0
rhumerus -37.1492 -19.9896 -74.9859
rradius 27.0727
rwrist 35.2372
rhand 0.0404479 -5.44178
rfingers 7.12502
rthumb 25.6291 -33.737
lclavicle 5.19325e-015 0
lhumerus -24.4166 4.56722 84.7108
lradius 29.6055
lwrist -43.7444
lhand 1.85636 5.45569
lfingers 7.12502
lthumb 27.3672 33.4886
rfemur -23.4215 3.98661 17.4544
rtibia 60.6174
rfoot -9.9531 -20.8081
rtoes -17.1566
lfemur -16.5678 -4.57304 -27.7471
ltibia 22.6641
lfoot 0.34088 14.5073
ltoes 10.1644
529
root 0.910759 16.0505 -14.1454 -176.118 5.16208 175.545
lowerback -4.09615 0.387475 -6.23311
upperback 1.92863 1.0293 -1.49807
thorax 4.22842 0.395447 2.02202
lowerneck -33.6897 0.219938 2.55592
upperneck 35.9046 0.296953 -0.392365
head 19.5733 0.864117 -0.396861
rclavicle 1.13804e-014 -5.00937e-014
rhumerus -37.1171 -19.7225 -75.1476
rradius 27.1261
rwrist 34.6814
rhand -0.0893376 -5.50353
rfingers 7.12502
rthumb 25.5048 -33.8165
lclavicle 1.13804e-014 -5.00937e-014
lhumerus -24.2726 3.90676 84.9584
lradius 29.6559
lwrist -43.0538
lhand 1.49659 5.70626
lfingers 7.12502
lthumb 27.023 33.7931
rfemur -23.7985 4.49944 17.3607
rtibia 59.5891
rfoot -10.5776 -21.1117
rtoes -17.5968
lfemur -16.6211 -4.83458 -27.8188
ltibia 23.0029
lfoot 0.15318 14.8134
ltoes 10.2468
530
root 0.912796 16.0407 -14.1888 -176.06 5.17892 175.627
lowerback -4.09172 0.318713 -6.24449
upperback 1.99232 0.934068 -1.40678
thorax 4.29845 0.341906 2.11609
lowerneck -33.806 0.268696 2.57147
upperneck 35.9547 0.351494 -0.38068
head 19.6338 0.888053 -0.379721
rclavicle 8.92046e-015 -3.29983e-014
rhumerus -36.9464 -19.7079 -75.1801
rradius 27.0089
rwrist 34.8296
rhand -0.263402 -5.37743
rfingers 7.12502
rthumb 25.3381 -33.7142
lclavicle 8.92046e-015 -3.29983e-014
lhumerus -24.0193 4.06028 84.999
lradius 29.6
lwrist -43.479
lhand 1.90154 5.66148
lfingers 7.12502
lthumb 27.4104 33.6876
rfemur -24.1469 5.14949 17.3935
rtibia 58.4453
rfoot -11.4552 -21.2449
rtoes -19.0359
lfemur -16.6773 -5.00134 -27.73
ltibia 23.3339
lfoot -0.0272256 15.1527
ltoes 10.2876
531
root 0.911517 16.0362 -14.2471 -176.041 5.07933 175.535
lowerback -4.06103 0.285046 -6.30005
upperback 1.90725 0.885164 -1.41051
thorax 4.19563 0.320445 2.13888
lowerneck -33.6501 0.201971 2.40514
upperneck 35.8965 0.290138 -0.232627
head 19.5582 0.865239 -0.29426
rclavicle 1.54058e-015 1.98785e-016
rhumerus -37.2455 -19.3956 -75.2235
rradius 27.2146
rwrist 34.565
rhand -0.0926057 -5.67189
rfingers 7.12502
rthumb 25.5017 -33.9854
lclavicle 1.54058e-015 1.98785e-016
lhumerus -24.1923 3.82041 85.0904
lradius 29.7679
lwrist -43.6549
lhand 1.79415 5.59521
lfingers 7.12502
lthumb 27.3077 33.6376
rfemur -24.2451 5.6755 17.1834
rtibia 57.2274
rfoot -12.3244 -21.2985
rtoes -18.9609
lfemur -16.6072 -5.10413 -27.8933
ltibia 23.6801
lfoot -0.353319 15.3727
ltoes 10.2137
